<?xml version="1.0" standalone="no"?>
<svg width="250" height="250" 
    xmlns="http://www.w3.org/2000/svg" viewbox="0 0 250 250" 
    xmlns:cc="http://creativecommons.org/ns#" 
    xmlns:dc="http://purl.org/dc/elements/1.1/" 
    xmlns:ev="http://www.w3.org/2001/xml-events" 
    xmlns:rdf="http://www.w3.org/1999/02/22-rdf-syntax-ns#" 
    xmlns:svg="http://www.w3.org/2000/svg" 
    xmlns:xlink="http://www.w3.org/1999/xlink">
    <rect x="0" y="0" width="25" height="25" transform="  translate(0 0) " fill="transparent" data-element-id="ID0" data-element-type="circle" data-element-data="circle_data"/>
    <rect x="0" y="0" width="25" height="25" transform="  translate(0 25) " fill="transparent" data-element-id="ID1" data-element-type="dot" data-element-data="dot_data"/>
    <rect x="0" y="0" width="25" height="25" transform="  translate(0 50) " fill="transparent" data-element-id="ID2" data-element-type="dot" data-element-data="dot_data"/>
    <rect x="0" y="0" width="25" height="25" transform="  translate(0 75) " fill="transparent" data-element-id="ID3" data-element-type="link" data-element-data="link_data"/>
    <rect x="0" y="0" width="25" height="25" transform="  translate(0 100) " fill="#000"/>
    <rect x="0" y="0" width="25" height="25" transform="  translate(0 125) " fill="transparent" data-element-id="ID4" data-element-type="link" data-element-data="link_data"/>
    <rect x="0" y="0" width="25" height="25" transform="  translate(0 150) " fill="transparent" data-element-id="ID5" data-element-type="link" data-element-data="link_data"/>
    <rect x="0" y="0" width="25" height="25" transform="  translate(0 175) " fill="#000"/>
    <rect x="0" y="0" width="25" height="25" transform="  translate(0 200) " fill="#000"/>
    <rect x="0" y="0" width="25" height="25" transform="  translate(0 225) " fill="#000"/>
    <rect x="0" y="0" width="25" height="25" transform="  translate(25 0) " fill="#000"/>
    <rect x="0" y="0" width="25" height="25" transform="  translate(25 25) " fill="transparent" data-element-id="ID6" data-element-type="link" data-element-data="link_data"/>
    <rect x="0" y="0" width="25" height="25" transform="  translate(25 50) " fill="transparent" data-element-id="ID7" data-element-type="link" data-element-data="link_data"/>
    <rect x="0" y="0" width="25" height="25" transform="  translate(25 75) " fill="transparent" data-element-id="ID8" data-element-type="dot" data-element-data="dot_data"/>
    <rect x="0" y="0" width="25" height="25" transform="  translate(25 100) " fill="transparent" data-element-id="ID9" data-element-type="dot" data-element-data="dot_data"/>
    <rect x="0" y="0" width="25" height="25" transform="  translate(25 125) " fill="#000"/>
    <rect x="0" y="0" width="25" height="25" transform="  translate(25 150) " fill="transparent" data-element-id="ID10" data-element-type="dot" data-element-data="dot_data"/>
    <rect x="0" y="0" width="25" height="25" transform="  translate(25 175) " fill="transparent" data-element-id="ID11" data-element-type="link" data-element-data="link_data"/>
    <rect x="0" y="0" width="25" height="25" transform="  translate(25 200) " fill="transparent" data-element-id="ID12" data-element-type="circle" data-element-data="circle_data"/>
    <rect x="0" y="0" width="25" height="25" transform="  translate(25 225) " fill="transparent" data-element-id="ID13" data-element-type="circle" data-element-data="circle_data"/>
    <rect x="0" y="0" width="25" height="25" transform="  translate(50 0) " fill="#000"/>
    <rect x="0" y="0" width="25" height="25" transform="  translate(50 25) " fill="transparent" data-element-id="ID14" data-element-type="dot" data-element-data="dot_data"/>
    <rect x="0" y="0" width="25" height="25" transform="  translate(50 50) " fill="transparent" data-element-id="ID15" data-element-type="link" data-element-data="link_data"/>
    <rect x="0" y="0" width="25" height="25" transform="  translate(50 75) " fill="transparent" data-element-id="ID16" data-element-type="link" data-element-data="link_data"/>
    <rect x="0" y="0" width="25" height="25" transform="  translate(50 100) " fill="transparent" data-element-id="ID17" data-element-type="dot" data-element-data="dot_data"/>
    <rect x="0" y="0" width="25" height="25" transform="  translate(50 125) " fill="transparent" data-element-id="ID18" data-element-type="circle" data-element-data="circle_data"/>
    <rect x="0" y="0" width="25" height="25" transform="  translate(50 150) " fill="transparent" data-element-id="ID19" data-element-type="dot" data-element-data="dot_data"/>
    <rect x="0" y="0" width="25" height="25" transform="  translate(50 175) " fill="transparent" data-element-id="ID20" data-element-type="dot" data-element-data="dot_data"/>
    <rect x="0" y="0" width="25" height="25" transform="  translate(50 200) " fill="transparent" data-element-id="ID21" data-element-type="circle" data-element-data="circle_data"/>
    <rect x="0" y="0" width="25" height="25" transform="  translate(50 225) " fill="transparent" data-element-id="ID22" data-element-type="link" data-element-data="link_data"/>
    <rect x="0" y="0" width="25" height="25" transform="  translate(75 0) " fill="#000"/>
    <rect x="0" y="0" width="25" height="25" transform="  translate(75 25) " fill="transparent" data-element-id="ID23" data-element-type="dot" data-element-data="dot_data"/>
    <rect x="0" y="0" width="25" height="25" transform="  translate(75 50) " fill="transparent" data-element-id="ID24" data-element-type="dot" data-element-data="dot_data"/>
    <rect x="0" y="0" width="25" height="25" transform="  translate(75 75) " fill="transparent" data-element-id="ID25" data-element-type="dot" data-element-data="dot_data"/>
    <rect x="0" y="0" width="25" height="25" transform="  translate(75 100) " fill="transparent" data-element-id="ID26" data-element-type="circle" data-element-data="circle_data"/>
    <rect x="0" y="0" width="25" height="25" transform="  translate(75 125) " fill="transparent" data-element-id="ID27" data-element-type="circle" data-element-data="circle_data"/>
    <rect x="0" y="0" width="25" height="25" transform="  translate(75 150) " fill="transparent" data-element-id="ID28" data-element-type="dot" data-element-data="dot_data"/>
    <rect x="0" y="0" width="25" height="25" transform="  translate(75 175) " fill="#000"/>
    <rect x="0" y="0" width="25" height="25" transform="  translate(75 200) " fill="transparent" data-element-id="ID29" data-element-type="dot" data-element-data="dot_data"/>
    <rect x="0" y="0" width="25" height="25" transform="  translate(75 225) " fill="transparent" data-element-id="ID30" data-element-type="circle" data-element-data="circle_data"/>
    <rect x="0" y="0" width="25" height="25" transform="  translate(100 0) " fill="transparent" data-element-id="ID31" data-element-type="link" data-element-data="link_data"/>
    <rect x="0" y="0" width="25" height="25" transform="  translate(100 25) " fill="transparent" data-element-id="ID32" data-element-type="circle" data-element-data="circle_data"/>
    <rect x="0" y="0" width="25" height="25" transform="  translate(100 50) " fill="transparent" data-element-id="ID33" data-element-type="dot" data-element-data="dot_data"/>
    <rect x="0" y="0" width="25" height="25" transform="  translate(100 75) " fill="transparent" data-element-id="ID34" data-element-type="circle" data-element-data="circle_data"/>
    <rect x="0" y="0" width="25" height="25" transform="  translate(100 100) " fill="transparent" data-element-id="ID35" data-element-type="circle" data-element-data="circle_data"/>
    <rect x="0" y="0" width="25" height="25" transform="  translate(100 125) " fill="#000"/>
    <rect x="0" y="0" width="25" height="25" transform="  translate(100 150) " fill="transparent" data-element-id="ID36" data-element-type="circle" data-element-data="circle_data"/>
    <rect x="0" y="0" width="25" height="25" transform="  translate(100 175) " fill="transparent" data-element-id="ID37" data-element-type="circle" data-element-data="circle_data"/>
    <rect x="0" y="0" width="25" height="25" transform="  translate(100 200) " fill="transparent" data-element-id="ID38" data-element-type="circle" data-element-data="circle_data"/>
    <rect x="0" y="0" width="25" height="25" transform="  translate(100 225) " fill="#000"/>
    <rect x="0" y="0" width="25" height="25" transform="  translate(125 0) " fill="transparent" data-element-id="ID39" data-element-type="dot" data-element-data="dot_data"/>
    <rect x="0" y="0" width="25" height="25" transform="  translate(125 25) " fill="transparent" data-element-id="ID40" data-element-type="circle" data-element-data="circle_data"/>
    <rect x="0" y="0" width="25" height="25" transform="  translate(125 50) " fill="#000"/>
    <rect x="0" y="0" width="25" height="25" transform="  translate(125 75) " fill="transparent" data-element-id="ID41" data-element-type="dot" data-element-data="dot_data"/>
    <rect x="0" y="0" width="25" height="25" transform="  translate(125 100) " fill="#000"/>
    <rect x="0" y="0" width="25" height="25" transform="  translate(125 125) " fill="#000"/>
    <rect x="0" y="0" width="25" height="25" transform="  translate(125 150) " fill="#000"/>
    <rect x="0" y="0" width="25" height="25" transform="  translate(125 175) " fill="transparent" data-element-id="ID42" data-element-type="dot" data-element-data="dot_data"/>
    <rect x="0" y="0" width="25" height="25" transform="  translate(125 200) " fill="#000"/>
    <rect x="0" y="0" width="25" height="25" transform="  translate(125 225) " fill="#000"/>
    <rect x="0" y="0" width="25" height="25" transform="  translate(150 0) " fill="transparent" data-element-id="ID43" data-element-type="circle" data-element-data="circle_data"/>
    <rect x="0" y="0" width="25" height="25" transform="  translate(150 25) " fill="transparent" data-element-id="ID44" data-element-type="link" data-element-data="link_data"/>
    <rect x="0" y="0" width="25" height="25" transform="  translate(150 50) " fill="transparent" data-element-id="ID45" data-element-type="circle" data-element-data="circle_data"/>
    <rect x="0" y="0" width="25" height="25" transform="  translate(150 75) " fill="transparent" data-element-id="ID46" data-element-type="link" data-element-data="link_data"/>
    <rect x="0" y="0" width="25" height="25" transform="  translate(150 100) " fill="#000"/>
    <rect x="0" y="0" width="25" height="25" transform="  translate(150 125) " fill="#000"/>
    <rect x="0" y="0" width="25" height="25" transform="  translate(150 150) " fill="#000"/>
    <rect x="0" y="0" width="25" height="25" transform="  translate(150 175) " fill="transparent" data-element-id="ID47" data-element-type="circle" data-element-data="circle_data"/>
    <rect x="0" y="0" width="25" height="25" transform="  translate(150 200) " fill="transparent" data-element-id="ID48" data-element-type="link" data-element-data="link_data"/>
    <rect x="0" y="0" width="25" height="25" transform="  translate(150 225) " fill="transparent" data-element-id="ID49" data-element-type="dot" data-element-data="dot_data"/>
    <rect x="0" y="0" width="25" height="25" transform="  translate(175 0) " fill="transparent" data-element-id="ID50" data-element-type="circle" data-element-data="circle_data"/>
    <rect x="0" y="0" width="25" height="25" transform="  translate(175 25) " fill="transparent" data-element-id="ID51" data-element-type="circle" data-element-data="circle_data"/>
    <rect x="0" y="0" width="25" height="25" transform="  translate(175 50) " fill="transparent" data-element-id="ID52" data-element-type="link" data-element-data="link_data"/>
    <rect x="0" y="0" width="25" height="25" transform="  translate(175 75) " fill="transparent" data-element-id="ID53" data-element-type="circle" data-element-data="circle_data"/>
    <rect x="0" y="0" width="25" height="25" transform="  translate(175 100) " fill="#000"/>
    <rect x="0" y="0" width="25" height="25" transform="  translate(175 125) " fill="transparent" data-element-id="ID54" data-element-type="circle" data-element-data="circle_data"/>
    <rect x="0" y="0" width="25" height="25" transform="  translate(175 150) " fill="transparent" data-element-id="ID55" data-element-type="dot" data-element-data="dot_data"/>
    <rect x="0" y="0" width="25" height="25" transform="  translate(175 175) " fill="#000"/>
    <rect x="0" y="0" width="25" height="25" transform="  translate(175 200) " fill="transparent" data-element-id="ID56" data-element-type="dot" data-element-data="dot_data"/>
    <rect x="0" y="0" width="25" height="25" transform="  translate(175 225) " fill="transparent" data-element-id="ID57" data-element-type="link" data-element-data="link_data"/>
    <rect x="0" y="0" width="25" height="25" transform="  translate(200 0) " fill="#000"/>
    <rect x="0" y="0" width="25" height="25" transform="  translate(200 25) " fill="transparent" data-element-id="ID58" data-element-type="link" data-element-data="link_data"/>
    <rect x="0" y="0" width="25" height="25" transform="  translate(200 50) " fill="transparent" data-element-id="ID59" data-element-type="link" data-element-data="link_data"/>
    <rect x="0" y="0" width="25" height="25" transform="  translate(200 75) " fill="transparent" data-element-id="ID60" data-element-type="dot" data-element-data="dot_data"/>
    <rect x="0" y="0" width="25" height="25" transform="  translate(200 100) " fill="transparent" data-element-id="ID61" data-element-type="dot" data-element-data="dot_data"/>
    <rect x="0" y="0" width="25" height="25" transform="  translate(200 125) " fill="#000"/>
    <rect x="0" y="0" width="25" height="25" transform="  translate(200 150) " fill="transparent" data-element-id="ID62" data-element-type="dot" data-element-data="dot_data"/>
    <rect x="0" y="0" width="25" height="25" transform="  translate(200 175) " fill="transparent" data-element-id="ID63" data-element-type="circle" data-element-data="circle_data"/>
    <rect x="0" y="0" width="25" height="25" transform="  translate(200 200) " fill="transparent" data-element-id="ID64" data-element-type="circle" data-element-data="circle_data"/>
    <rect x="0" y="0" width="25" height="25" transform="  translate(200 225) " fill="transparent" data-element-id="ID65" data-element-type="dot" data-element-data="dot_data"/>
    <rect x="0" y="0" width="25" height="25" transform="  translate(225 0) " fill="transparent" data-element-id="ID66" data-element-type="link" data-element-data="link_data"/>
    <rect x="0" y="0" width="25" height="25" transform="  translate(225 25) " fill="transparent" data-element-id="ID67" data-element-type="link" data-element-data="link_data"/>
    <rect x="0" y="0" width="25" height="25" transform="  translate(225 50) " fill="transparent" data-element-id="ID68" data-element-type="dot" data-element-data="dot_data"/>
    <rect x="0" y="0" width="25" height="25" transform="  translate(225 75) " fill="transparent" data-element-id="ID69" data-element-type="dot" data-element-data="dot_data"/>
    <rect x="0" y="0" width="25" height="25" transform="  translate(225 100) " fill="transparent" data-element-id="ID70" data-element-type="dot" data-element-data="dot_data"/>
    <rect x="0" y="0" width="25" height="25" transform="  translate(225 125) " fill="transparent" data-element-id="ID71" data-element-type="dot" data-element-data="dot_data"/>
    <rect x="0" y="0" width="25" height="25" transform="  translate(225 150) " fill="transparent" data-element-id="ID72" data-element-type="dot" data-element-data="dot_data"/>
    <rect x="0" y="0" width="25" height="25" transform="  translate(225 175) " fill="transparent" data-element-id="ID73" data-element-type="link" data-element-data="link_data"/>
    <rect x="0" y="0" width="25" height="25" transform="  translate(225 200) " fill="#000"/>
    <rect x="0" y="0" width="25" height="25" transform="  translate(225 225) " fill="#000"/>
</svg>